<?xml version="1.0" standalone="no"?>
<!DOCTYPE svg PUBLIC "-//W3C//DTD SVG 20010904//EN"
 "http://www.w3.org/TR/2001/REC-SVG-20010904/DTD/svg10.dtd">
<svg version="1.0" xmlns="http://www.w3.org/2000/svg"
 width="108.000000pt" height="108.000000pt" viewBox="0 0 108.000000 108.000000"
 preserveAspectRatio="xMidYMid meet">

<g transform="translate(0.000000,108.000000) scale(0.100000,-0.100000)"
fill="#000000" stroke="none">
<path d="M0 540 l0 -540 540 0 540 0 0 540 0 540 -540 0 -540 0 0 -540z m800
135 c43 -22 63 -68 58 -132 -5 -62 -32 -98 -85 -112 -76 -21 -143 26 -151 107
-10 114 83 186 178 137z m-250 -22 c58 -52 50 -165 -14 -204 -22 -14 -50 -19
-98 -19 l-68 0 0 125 0 125 75 0 c67 0 78 -3 105 -27z"/>
<path d="M694 619 c-25 -28 -24 -101 1 -129 26 -29 69 -26 94 6 25 32 27 74 6
114 -13 24 -22 30 -49 30 -21 0 -40 -8 -52 -21z"/>
<path d="M422 558 l3 -83 33 2 c49 2 72 28 72 80 0 55 -26 83 -75 83 l-36 0 3
-82z"/>
</g>
</svg>
